<?xml version="1.0" standalone="no"?>
<!DOCTYPE svg PUBLIC "-//W3C//DTD SVG 20010904//EN"
 "http://www.w3.org/TR/2001/REC-SVG-20010904/DTD/svg10.dtd">
<svg version="1.0" xmlns="http://www.w3.org/2000/svg"
 width="260.000000pt" height="260.000000pt" viewBox="0 0 260.000000 260.000000"
 preserveAspectRatio="xMidYMid meet">
<metadata>
Created by potrace 1.14, written by Peter Selinger 2001-2017
</metadata>
<g transform="translate(0.000000,260.000000) scale(0.100000,-0.100000)"
fill="#000000" stroke="none">
<path d="M1860 1661 c-212 -39 -336 -249 -290 -491 24 -127 92 -221 199 -272
61 -30 73 -33 171 -33 95 0 111 3 168 29 41 19 78 46 107 78 43 47 82 135 68
149 -11 11 -177 39 -181 31 -20 -51 -53 -90 -92 -110 -135 -70 -257 65 -236
263 13 124 75 195 170 195 68 0 111 -27 137 -86 12 -25 26 -44 32 -41 7 2 44
10 82 17 94 18 97 21 77 78 -24 66 -103 143 -173 170 -65 24 -174 34 -239 23z"/>
<path d="M330 1646 c0 -21 220 -760 229 -769 4 -4 52 -6 106 -5 l99 3 48 165
c26 91 57 209 69 263 13 54 26 94 30 90 3 -4 14 -44 24 -88 19 -86 110 -408
120 -425 7 -11 184 -14 201 -2 9 6 234 747 234 772 0 12 -206 14 -213 3 -5 -9
-99 -412 -117 -507 -7 -32 -15 -54 -19 -50 -4 5 -24 83 -45 174 -20 91 -49
215 -65 275 l-27 110 -95 0 -94 0 -37 -145 c-20 -80 -51 -207 -69 -283 -18
-76 -35 -134 -39 -130 -4 4 -17 58 -29 118 -13 61 -41 185 -63 278 l-40 167
-104 0 c-81 0 -104 -3 -104 -14z"/>
</g>
</svg>
